<?xml version="1.0" encoding="utf-8"?>
<!-- Generator: Adobe Illustrator 19.0.0, SVG Export Plug-In . SVG Version: 6.00 Build 0)  -->
<svg version="1.1" id="Layer_1" xmlns="http://www.w3.org/2000/svg" xmlns:xlink="http://www.w3.org/1999/xlink" x="0px" y="0px"
	 viewBox="0 0 25 41" style="enable-background:new 0 0 25 41;" xml:space="preserve">
<style type="text/css">
	.st0{fill:none;}
	.st1{fill:#2B6DA0;}
	.st2{fill:#348BCB;}
	.st3{fill:#FFFFFF;}
	.st4{fill:url(#XMLID_6_);}
	.st5{fill:url(#XMLID_7_);}
</style>
<pattern  width="15.5" height="12.2" patternUnits="userSpaceOnUse" id="New_Pattern_Swatch_10" viewBox="0 -12.2 15.5 12.2" style="overflow:visible;">
	<g id="XMLID_2_">
		<polygon id="XMLID_4_" class="st0" points="0,0 15.5,0 15.5,-12.2 0,-12.2 		"/>
		<polygon id="XMLID_3_" class="st1" points="15.5,0 0,0 0,-12.2 15.5,-12.2 		"/>
	</g>
</pattern>
<path id="XMLID_15_" class="st2" d="M12.5,0.7C6.1,0.7,0.8,6,0.8,12.5c0,1.7,0.4,3.4,1.1,5c0,0,0,0,0,0l10.8,22.2l10.1-21.6
	c0.9-1.7,1.4-3.7,1.4-5.7C24.3,6,19,0.7,12.5,0.7z M12.5,21.7c-5.3,0-9.6-4.3-9.6-9.6c0-5.3,4.3-9.6,9.6-9.6c5.3,0,9.6,4.3,9.6,9.6
	C22.1,17.4,17.8,21.7,12.5,21.7z"/>
<path id="XMLID_18_" class="st3" d="M12.5,3.3c-0.5,0-0.9,0-1.4,0.1C7,4.1,3.7,7.7,3.7,12.1c0,0.7,0.1,1.3,0.2,2
	c0.8,3.5,3.7,6.2,7.2,6.8c0.5,0.1,0.9,0.1,1.4,0.1c4.2,0,7.7-2.9,8.6-6.9c0.1-0.6,0.2-1.3,0.2-2C21.4,7.2,17.4,3.3,12.5,3.3z"/>
<path id="XMLID_26_" class="st2" d="M12.5,0C5.7,0,0.1,5.6,0.1,12.5c0,1.8,0.4,3.6,1.2,5.3c0,0,0,0,0,0.1l11.1,23
	c0.1,0.1,0.2,0.2,0.3,0.2c0.1,0,0.3-0.1,0.3-0.2l10.4-22.3c1-1.8,1.5-3.9,1.5-6C25,5.6,19.4,0,12.5,0z M22.8,18.2L12.7,39.8
	L1.9,17.6c0,0,0,0,0,0c-0.7-1.6-1.1-3.3-1.1-5C0.8,6,6.1,0.7,12.5,0.7C19,0.7,24.3,6,24.3,12.5C24.3,14.5,23.8,16.5,22.8,18.2z"/>
<pattern  id="XMLID_6_" xlink:href="#New_Pattern_Swatch_10" patternTransform="matrix(1 0 0 1 -14 -8.8333)">
</pattern>
<path id="XMLID_25_" class="st4" d="M12.5,0C5.7,0,0.1,5.6,0.1,12.5c0,1.8,0.4,3.6,1.2,5.3c0,0,0,0,0,0.1l11.1,23
	c0.1,0.1,0.2,0.2,0.3,0.2c0.1,0,0.3-0.1,0.3-0.2l10.4-22.3c1-1.8,1.5-3.9,1.5-6C25,5.6,19.4,0,12.5,0z M22.8,18.2L12.7,39.8
	L1.9,17.6c0,0,0,0,0,0c-0.7-1.6-1.1-3.3-1.1-5C0.8,6,6.1,0.7,12.5,0.7C19,0.7,24.3,6,24.3,12.5C24.3,14.5,23.8,16.5,22.8,18.2z"/>
<path id="XMLID_34_" class="st2" d="M12.5,2.5C7.3,2.5,3,6.8,3,12.1c0,5.3,4.3,9.6,9.6,9.6c5.3,0,9.6-4.3,9.6-9.6
	C22.1,6.8,17.8,2.5,12.5,2.5z M21.1,14.1C20.2,18,16.7,21,12.5,21c-0.5,0-0.9,0-1.4-0.1c-3.6-0.6-6.4-3.3-7.2-6.8
	c-0.1-0.6-0.2-1.3-0.2-2c0-4.4,3.2-8.1,7.4-8.7c0.5-0.1,0.9-0.1,1.4-0.1c4.9,0,8.8,4,8.8,8.9C21.4,12.8,21.3,13.5,21.1,14.1z"/>
<pattern  id="XMLID_7_" xlink:href="#New_Pattern_Swatch_10" patternTransform="matrix(1 0 0 1 -14 -8.8333)">
</pattern>
<path id="XMLID_33_" class="st5" d="M12.5,2.5C7.3,2.5,3,6.8,3,12.1c0,5.3,4.3,9.6,9.6,9.6c5.3,0,9.6-4.3,9.6-9.6
	C22.1,6.8,17.8,2.5,12.5,2.5z M21.1,14.1C20.2,18,16.7,21,12.5,21c-0.5,0-0.9,0-1.4-0.1c-3.6-0.6-6.4-3.3-7.2-6.8
	c-0.1-0.6-0.2-1.3-0.2-2c0-4.4,3.2-8.1,7.4-8.7c0.5-0.1,0.9-0.1,1.4-0.1c4.9,0,8.8,4,8.8,8.9C21.4,12.8,21.3,13.5,21.1,14.1z"/>
</svg>
