<?xml version="1.0" encoding="utf-8"?>
<!-- Generator: Adobe Illustrator 19.0.0, SVG Export Plug-In . SVG Version: 6.00 Build 0)  -->
<svg version="1.1" id="Layer_1" xmlns="http://www.w3.org/2000/svg" xmlns:xlink="http://www.w3.org/1999/xlink" x="0px" y="0px"
	 viewBox="0 0 68 110" style="enable-background:new 0 0 68 110;" xml:space="preserve">
<style type="text/css">
	.st0{fill:#F47621;}
	.st1{fill:#F6AA1C;}
	.st2{fill:#FFFFFF;}
	.st3{fill:#91BEE6;}
</style>
<path id="XMLID_10_" class="st0" d="M34.2,0.7c18.4,0,33.3,14.9,33.3,33.3c0,21.7-33.3,75.3-33.3,75.3s0-0.1-0.1-0.2V0.7
	C34.1,0.7,34.2,0.7,34.2,0.7z"/>
<path id="XMLID_11_" d="M34.2,109.7c-0.1,0-0.2-0.1-0.3-0.2l-0.1-0.2c0-0.1-0.1-0.1-0.1-0.2V0.7c0-0.2,0.1-0.3,0.3-0.3l0.1,0
	c18.5,0,33.6,15.1,33.6,33.6c0,21.5-33,75-33.3,75.5C34.4,109.6,34.3,109.7,34.2,109.7C34.2,109.7,34.2,109.7,34.2,109.7z M34.4,1
	v107.3c4.2-6.9,32.7-54.4,32.7-74.3C67.1,15.9,52.5,1.2,34.4,1z"/>
<path id="XMLID_6_" class="st1" d="M34,0.7C15.6,0.7,0.7,15.6,0.7,34c0,21.7,33.3,75.3,33.3,75.3s0-0.1,0.1-0.2V0.7
	C34,0.7,34,0.7,34,0.7z"/>
<path id="XMLID_7_" d="M34,109.7c-0.1,0-0.2-0.1-0.3-0.2C33.4,109,0.4,55.5,0.4,34C0.4,15.5,15.4,0.4,34,0.4c0,0,0.1,0,0.1,0
	c0.2,0,0.4,0.2,0.4,0.3v108.4c0,0.1,0,0.1-0.1,0.2l-0.1,0.2C34.2,109.6,34.1,109.7,34,109.7z M33.7,1C15.7,1.2,1,15.9,1,34
	c0,19.9,28.5,67.5,32.7,74.3V1z"/>
<circle id="XMLID_2_" class="st2" cx="34.1" cy="34.9" r="25.4"/>
<path id="XMLID_3_" class="st3" d="M34.1,60.6c-14.2,0-25.7-11.5-25.7-25.7S19.9,9.2,34.1,9.2c14.2,0,25.7,11.5,25.7,25.7
	S48.3,60.6,34.1,60.6z M34.1,9.8c-13.8,0-25,11.2-25,25c0,13.8,11.2,25,25,25c13.8,0,25-11.2,25-25C59.1,21.1,47.9,9.8,34.1,9.8z"/>
</svg>
